<svg width="15" height="15" fill="none" xmlns="http://www.w3.org/2000/svg">
  <path d="M8.27 0c.55 0 1.1 0 1.64.02h.15l.53.03c.8.03 1.35.16 1.82.34.5.2.91.45 1.33.87.38.37.68.83.87 1.33.18.48.3 1.02.35 1.82l.02.53v.15c.02.55.02 1.1.02 1.64v1.54c0 .55 0 1.1-.02 1.64v.15l-.02.53c-.04.8-.17 1.34-.35 1.82-.2.5-.49.96-.87 1.33-.37.38-.83.68-1.33.87-.47.18-1.02.3-1.82.35l-.53.02H9.9c-.54.02-1.1.02-1.64.02H6.73c-.55 0-1.1 0-1.64-.02h-.15l-.53-.02a5.57 5.57 0 0 1-1.82-.35c-.5-.2-.96-.49-1.33-.87a3.68 3.68 0 0 1-.87-1.33 5.54 5.54 0 0 1-.34-1.82l-.03-.53V9.9L0 8.27V6.73c0-.55 0-1.1.02-1.64v-.15l.02-.53c.04-.8.17-1.34.35-1.82.2-.5.49-.96.87-1.33.37-.38.83-.68 1.33-.87A5.54 5.54 0 0 1 4.4.05l.53-.03h.15L6.73 0h1.54ZM7.5 3.75a3.75 3.75 0 1 0 0 7.5 3.75 3.75 0 0 0 0-7.5Zm0 1.5a2.25 2.25 0 1 1 0 4.5 2.25 2.25 0 0 1 0-4.5Zm3.94-2.62a.94.94 0 0 0 0 1.87.94.94 0 1 0 0-1.88Z" fill="#FF7D01"/>
</svg>
