<svg width="16" height="12" fill="none" xmlns="http://www.w3.org/2000/svg">
  <path d="M8.05 0h.09c.82 0 4.99.03 6.11.33a2.01 2.01 0 0 1 1.41 1.42c.1.38.18.89.22 1.4l.01.11.03.26v.1c.07.92.08 1.77.08 1.96v.08c0 .19-.01 1.1-.08 2.06l-.01.1-.01.1a9.9 9.9 0 0 1-.24 1.56 2 2 0 0 1-1.41 1.42c-1.16.31-5.57.34-6.18.34h-.14A96 96 0 0 1 5 11.19l-.17-.01h-.09l-.17-.01H4.4a16.08 16.08 0 0 1-2.65-.27A2 2 0 0 1 .33 9.48 9.89 9.89 0 0 1 .1 7.93l-.01-.11v-.1A31.4 31.4 0 0 1 0 5.68v-.12c0-.22.01-.96.06-1.78l.01-.1v-.06l.01-.1.02-.26.01-.1c.05-.52.12-1.03.22-1.4A2 2 0 0 1 1.75.32C2.24.2 3.29.13 4.4.07h.34l.1-.01H5C5.95.01 6.9 0 7.86 0h.2ZM6.4 3.2v4.83l4.16-2.41L6.4 3.2Z" fill="#FF7D01"/>
</svg>
